<svg width="20" height="20" viewBox="0 0 20 20" fill="none" xmlns="http://www.w3.org/2000/svg">
<g clip-path="url(#clip0_36_38)">
<path d="M13.775 9.21671L12.8917 8.33337L8.825 12.4L7.05833 10.6334L6.175 11.5167L8.825 14.1667L13.775 9.21671ZM15.8333 2.50004H15V0.833374H13.3333V2.50004H6.66667V0.833374H5V2.50004H4.16667C3.24167 2.50004 2.50833 3.25004 2.50833 4.16671L2.5 15.8334C2.5 16.75 3.24167 17.5 4.16667 17.5H15.8333C16.75 17.5 17.5 16.75 17.5 15.8334V4.16671C17.5 3.25004 16.75 2.50004 15.8333 2.50004ZM15.8333 15.8334H4.16667V6.66671H15.8333V15.8334Z" fill="black"/>
</g>
<defs>
<clipPath id="clip0_36_38">
<rect width="20" height="20" fill="white"/>
</clipPath>
</defs>
</svg>
