<svg width="45" height="45" viewBox="0 0 45 45" fill="none" xmlns="http://www.w3.org/2000/svg">
<path fill-rule="evenodd" clip-rule="evenodd" d="M32.3199 44.9736H16.1863C15.7909 44.9736 15.4746 44.6837 15.4746 44.2882C15.4746 35.6678 23.1987 33.8489 25.4921 33.5062L25.6503 30.1318C23.1196 28.6292 21.406 25.8612 21.406 22.6977C21.406 17.9262 25.2812 13.9982 30.1055 13.9982C34.9561 13.9982 38.7786 17.9789 38.7786 22.6977C38.7786 25.8612 37.0914 28.6292 34.5607 30.1318L34.7189 33.5062C37.0124 33.8489 44.7101 35.6678 44.7101 44.2882C44.7101 44.6837 44.3937 44.9736 43.9983 44.9736H32.3463H32.3199ZM10.4658 20.3515C4.85067 20.3515 0.290039 15.7909 0.290039 10.1757C0.290039 4.56063 4.85067 0 10.4658 0C16.0545 0 20.6415 4.56063 20.6415 10.1757C20.6415 15.7909 16.0545 20.3515 10.4658 20.3515ZM10.4658 1.42355C5.61517 1.42355 1.68723 5.35149 1.68723 10.1757C1.68723 15.0264 5.61517 18.9543 10.4658 18.9543C15.29 18.9543 19.218 15.0264 19.218 10.1757C19.218 5.35149 15.29 1.42355 10.4658 1.42355ZM6.80146 16.529C6.37967 16.529 6.06333 16.1863 6.08969 15.7645L6.35331 12.1002L3.98072 9.3058C3.66438 8.91037 3.84891 8.30404 4.34979 8.17223L7.93503 7.30229L9.85946 4.1652C10.1231 3.74341 10.7821 3.74341 11.0458 4.1652L12.9965 7.30229L16.5554 8.17223C17.0563 8.30404 17.2408 8.91037 16.9245 9.3058L14.5519 12.1002L14.8155 15.7645C14.8682 16.2917 14.341 16.6608 13.8401 16.4763L10.4658 15.0791C10.3076 15.0791 7.17053 16.529 6.80146 16.529ZM5.79971 9.25308L7.61869 11.4148C7.72413 11.5466 7.80322 11.7311 7.77686 11.9156L7.56596 14.7364L10.1758 13.6819C10.3603 13.6028 10.5449 13.6028 10.7294 13.6819L13.3392 14.7364L13.1284 11.9156C13.102 11.7311 13.1811 11.5466 13.2865 11.4148L15.1055 9.25308L12.3639 8.59403C12.2057 8.5413 12.0475 8.43585 11.9421 8.27768L10.4658 5.87874L8.96315 8.27768C8.8577 8.43585 8.72589 8.5413 8.54136 8.59403L5.79971 9.25308ZM27.0211 30.8172L26.863 33.8225L30.1055 36.696L33.3217 33.8225L33.1899 30.8172C31.1863 31.5554 28.9983 31.5554 27.0211 30.8172ZM30.1055 15.3954C28.1284 15.3954 26.3357 16.1863 25.0176 17.478C27.2848 17.7417 30.1582 18.348 32.8208 19.6924C34.2971 20.4306 35.7206 20.6678 37.0124 20.4042C36.0633 17.5044 33.3217 15.3954 30.1055 15.3954ZM23.9631 18.7698C20.8788 23.5677 24.3322 29.9736 30.1055 29.9736C34.4816 29.9736 37.8559 26.1248 37.3287 21.775C35.6152 22.1441 33.8753 21.775 32.1881 20.9315C29.341 19.5079 26.2039 18.9807 23.9631 18.7698ZM31.5291 43.5765L30.7118 38.0141C30.58 38.1459 30.4746 38.2513 30.3164 38.304C29.9737 38.3831 29.7364 38.225 29.4728 38.0141L28.682 43.5765H31.5291ZM27.2584 43.5765L28.2074 36.9069L25.9139 34.877C24.3849 35.0352 17.3199 36.2214 16.8981 43.5765H27.2584ZM34.2707 34.877L31.9772 36.9069L32.9262 43.5765H43.2865C42.8647 36.2214 35.8261 35.0352 34.2707 34.877Z" fill="#EE95C5"/>
</svg>
