<svg width="20" height="21" viewBox="0 0 20 21" fill="none" xmlns="http://www.w3.org/2000/svg">
<path d="M9.29522 0.855406C9.22083 0.863232 8.98982 0.890623 8.78622 0.914099C7.10258 1.10192 5.37197 1.80232 3.93892 2.87445C3.47298 3.2227 2.61159 4.05614 2.22788 4.5296C1.29992 5.67216 0.544244 7.20993 0.234926 8.599C0.0430697 9.45201 0 9.87069 0 10.8489C0 11.8271 0.0430697 12.2458 0.234926 13.0988C0.544244 14.4879 1.29992 16.0296 2.22788 17.1682C2.5881 17.6143 3.3007 18.3186 3.74315 18.6708C4.86688 19.5668 6.38606 20.3024 7.74863 20.6076C8.56695 20.7915 9.05638 20.8424 10 20.8424C11.6641 20.8424 12.9405 20.5489 14.4049 19.829C16.0376 19.0307 17.3414 17.8882 18.3594 16.3661C18.9585 15.4739 19.5341 14.1396 19.7651 13.0988C19.9569 12.2458 20 11.8271 20 10.8489C20 9.87069 19.9569 9.45201 19.7651 8.599C19.4558 7.20993 18.7001 5.66825 17.7721 4.5296C17.4119 4.08353 16.6993 3.37922 16.2569 3.02706C14.8943 1.93927 13.2146 1.20757 11.48 0.945402C10.9867 0.871058 9.63587 0.816277 9.29522 0.855406ZM10.6852 3.90354C11.7384 4.12658 12.6116 4.84655 13.0462 5.84824C13.2263 6.27083 13.2968 6.64256 13.2968 7.1708C13.2929 8.09424 12.9522 8.88073 12.2749 9.52635C11.9146 9.8746 11.527 10.1133 11.0846 10.2659C9.06813 10.9585 6.93031 9.59678 6.71104 7.476C6.53876 5.8052 7.65857 4.25961 9.29914 3.90354C9.63195 3.83311 10.3446 3.83311 10.6852 3.90354ZM12.7604 12.1715C13.7745 12.4532 14.538 13.091 14.9687 14.0262C15.3602 14.8674 15.3798 15.6813 15.0235 16.2017C14.7298 16.6282 13.6844 17.3247 12.7604 17.7082C11.1081 18.389 9.02114 18.4047 7.33751 17.7473C6.41738 17.3873 5.22318 16.6087 4.96085 16.1978C4.65544 15.7165 4.63978 15.0866 4.90603 14.304C5.30149 13.1536 6.35865 12.2888 7.59201 12.1049C7.72122 12.0854 8.86844 12.0736 10.137 12.0776C12.3923 12.0854 12.455 12.0854 12.7604 12.1715Z" fill="black"/>
</svg>
