<svg width="42" height="43" viewBox="0 0 42 43" fill="none" xmlns="http://www.w3.org/2000/svg">
<path d="M16.2818 31.2712H2.32801C2.67948 24.5461 8.26172 19.1829 15.073 19.1829C17.0077 19.1829 18.8656 19.6044 20.5955 20.4362C20.93 20.5964 21.333 20.4559 21.4942 20.121C21.6553 19.7862 21.5139 19.3835 21.1791 19.2224C19.266 18.3026 17.2114 17.8363 15.073 17.8363C7.29304 17.8363 0.963867 24.1654 0.963867 31.9445C0.963867 32.3166 1.26506 32.6178 1.63718 32.6178H16.2818C16.6539 32.6178 16.9551 32.3166 16.9551 31.9445C16.9551 31.5724 16.6539 31.2712 16.2818 31.2712Z" fill="#F6C762"/>
<path d="M14.8369 16.4982C19.3351 16.4982 22.9948 12.8389 22.9948 8.3416C22.9948 3.84429 19.3351 0.185486 14.8369 0.185486C10.3405 0.185486 6.68262 3.84429 6.68262 8.3416C6.68262 12.8389 10.341 16.4982 14.8369 16.4982ZM14.8369 1.53212C18.5927 1.53212 21.6482 4.58673 21.6482 8.3416C21.6482 12.0969 18.5927 15.1515 14.8369 15.1515C11.083 15.1515 8.02925 12.0965 8.02925 8.3416C8.02925 4.58673 11.083 1.53212 14.8369 1.53212Z" fill="#F6C762"/>
<path d="M40.9703 24.0891H37.6037V19.3759C37.6037 19.0038 37.3025 18.7026 36.9304 18.7026H33.3394C32.9672 18.7026 32.666 19.0038 32.666 19.3759V24.0891H19.873C19.5009 24.0891 19.1997 24.3903 19.1997 24.7624V41.8198C19.1997 42.1919 19.5009 42.4931 19.873 42.4931H40.9703C41.3424 42.4931 41.6436 42.1919 41.6436 41.8198V24.7624C41.6436 24.3903 41.3424 24.0891 40.9703 24.0891ZM34.0127 20.0492H36.2571V28.5779H34.0127V20.0492ZM32.666 25.4358V29.2512C32.666 29.6233 32.9672 29.9245 33.3394 29.9245H36.9304C37.3025 29.9245 37.6037 29.6233 37.6037 29.2512V25.4358H40.297V36.2088H20.5463V25.4358H32.666ZM20.5463 41.1465V37.5555H40.297V41.1465H20.5463Z" fill="#F6C762"/>
<path d="M28.8506 29.9245H29.2994C29.6716 29.9245 29.9728 29.6233 29.9728 29.2512C29.9728 28.8791 29.6716 28.5779 29.2994 28.5779H28.8506C28.4784 28.5779 28.1772 28.8791 28.1772 29.2512C28.1772 29.6233 28.4784 29.9245 28.8506 29.9245Z" fill="#F6C762"/>
<path d="M28.8506 33.0667H29.2994C29.6716 33.0667 29.9728 32.7655 29.9728 32.3934C29.9728 32.0212 29.6716 31.72 29.2994 31.72H28.8506C28.4784 31.72 28.1772 32.0212 28.1772 32.3934C28.1772 32.7655 28.4784 33.0667 28.8506 33.0667Z" fill="#F6C762"/>
<path d="M23.9126 29.9245H24.3615C24.7336 29.9245 25.0348 29.6233 25.0348 29.2512C25.0348 28.8791 24.7336 28.5779 24.3615 28.5779H23.9126C23.5405 28.5779 23.2393 28.8791 23.2393 29.2512C23.2393 29.6233 23.5405 29.9245 23.9126 29.9245Z" fill="#F6C762"/>
<path d="M23.9126 33.0667H24.3615C24.7336 33.0667 25.0348 32.7655 25.0348 32.3934C25.0348 32.0212 24.7336 31.72 24.3615 31.72H23.9126C23.5405 31.72 23.2393 32.0212 23.2393 32.3934C23.2393 32.7655 23.5405 33.0667 23.9126 33.0667Z" fill="#F6C762"/>
</svg>
